<?xml version="1.0" encoding="iso-8859-1"?>
<!-- Generator: Adobe Illustrator 19.0.0, SVG Export Plug-In . SVG Version: 6.00 Build 0)  -->
<svg version="1.1" id="Capa_1" xmlns="http://www.w3.org/2000/svg" xmlns:xlink="http://www.w3.org/1999/xlink" x="0px" y="0px"
	 viewBox="0 0 512.002 512.002" style="enable-background:new 0 0 512.002 512.002;" xml:space="preserve">
<path style="fill:#EDA751;" d="M132.796,284.362c6.934-19.051,4.976-43.181-30.166-60.235c-35.418-17.189-67.972-7.828-88.686,7.622
	c-5.107,3.809-7.477,10.321-6.013,16.522c5.936,25.15,24.857,53.245,63.038,62.845C108.851,320.64,125.862,303.414,132.796,284.362z
	"/>
<path style="fill:#FF91AB;" d="M8.93,252.067c6.889,24.121,25.769,49.929,62.039,59.049c32.834,8.255,49.982-3.59,58.486-19.298
	C84.865,235.519,35.848,242.062,8.93,252.067z"/>
<path style="fill:#EDA751;" d="M216.455,236.062c-19.966-3.521-39.884-17.282-37.082-56.241
	c2.824-39.267,27.207-62.78,50.944-72.993c5.852-2.518,12.677-1.315,17.315,3.053c18.813,17.716,33.683,48.149,22.907,86.015
	C259.845,233.463,236.421,239.582,216.455,236.062z"/>
<path style="fill:#FF91AB;" d="M250.419,112.643c17.445,18.026,30.357,47.281,20.119,83.252
	c-9.268,32.563-28.1,41.491-45.955,41.002C198.121,170.131,228.295,130.953,250.419,112.643z"/>
<path style="fill:#FFDC9C;" d="M301.481,209.685c30.892,53.505-7.971,107.188-72.6,144.502S98.33,398.314,67.439,344.808
	s-3.542-127.128,61.087-164.441C193.155,143.053,270.59,156.178,301.481,209.685z"/>
<path style="opacity:0.15;fill:#C17A00;enable-background:new    ;" d="M74.679,231.399c-22.861,36.09-27.149,78.927-7.24,113.409
	c26.555,45.995,78.997,47.415,134.251,23.205C101.45,366.524,76.596,301.026,74.679,231.399z"/>
<g>
	
		<ellipse transform="matrix(-0.5 -0.866 0.866 -0.5 -78.249 580.1266)" style="fill:#FF91AB;" cx="128.341" cy="312.652" rx="19.483" ry="24.465"/>
	
		<ellipse transform="matrix(0.5 0.866 -0.866 0.5 334.9401 -87.4319)" style="fill:#FF91AB;" cx="243.189" cy="246.355" rx="19.483" ry="24.465"/>
</g>
<path style="fill:#7694E4;" d="M374.028,252.224c150.919,10.327,145.391,88.33,108.934,127.499
	c-9.729,10.453-22.604,17.45-36.578,20.381c-72.088,15.119-197.545-0.232-231.181-9.14c0,0-2.75-37.69,44.382-83.484
	C311.493,257.047,341.178,251.544,374.028,252.224z"/>
<path style="fill:#82C7E6;" d="M162.244,376.183c26.045-33.993,103.57-127.009,168.049-142.925c6.454-1.593,13.19-1.791,19.67-0.306
	c7.817,1.792,14.008,4.649,19.033,8.255c6.129,4.399,6.103,13.505-0.092,17.812c-34.803,24.199-118.245,97.159-144.461,127.764
	c-2.479,2.894-5.732,5.035-9.41,6.031c-14.183,3.842-31.481,4.867-47.02,0.681C160.486,391.469,157.503,382.371,162.244,376.183z"/>
<path d="M411.686,137.811h26.68l-28.952,22.856c-3.588,2.833-4.991,7.637-3.492,11.955s5.578,7.219,10.148,7.219h38.942
	c4.143,0,7.5-3.358,7.5-7.5c0-4.142-3.357-7.5-7.5-7.5h-26.68l28.952-22.856c3.588-2.832,4.991-7.637,3.492-11.955
	c-1.499-4.318-5.578-7.219-10.148-7.219h-38.942c-4.143,0-7.5,3.358-7.5,7.5S407.543,137.811,411.686,137.811z M338.17,169.47h26.68
	l-28.952,22.856c-3.588,2.833-4.991,7.637-3.492,11.955c1.499,4.318,5.578,7.219,10.148,7.219h38.942c4.143,0,7.5-3.358,7.5-7.5
	s-3.357-7.5-7.5-7.5h-26.68l28.952-22.856c3.588-2.833,4.991-7.637,3.492-11.955c-1.499-4.318-5.578-7.219-10.148-7.219H338.17
	c-4.143,0-7.5,3.358-7.5,7.5S334.029,169.47,338.17,169.47z M139.284,272.598c-3.712-1.833-8.211-0.31-10.046,3.403
	c-0.689,1.397-1.942,2.67-3.527,3.585c-1.586,0.916-3.317,1.36-4.87,1.263c-4.141-0.277-7.702,2.866-7.969,7
	c-0.268,4.133,2.866,7.701,7,7.969c0.474,0.031,0.949,0.046,1.425,0.046c4.077,0,8.167-1.124,11.914-3.287
	c4.183-2.415,7.46-5.85,9.477-9.933C144.521,278.93,142.998,274.432,139.284,272.598z M211.448,243.814
	c4.077,0,8.167-1.125,11.912-3.287c4.183-2.415,7.46-5.85,9.477-9.932c1.834-3.713,0.311-8.211-3.403-10.046
	c-3.711-1.834-8.211-0.311-10.046,3.403c-0.689,1.396-1.942,2.669-3.528,3.585c-1.584,0.915-3.317,1.363-4.868,1.263
	c-4.134-0.273-7.702,2.865-7.97,6.999c-0.268,4.133,2.865,7.702,6.999,7.97C210.495,243.799,210.971,243.814,211.448,243.814z
	 M186.282,280.402c3.507-2.025,4.708-6.508,2.684-10.015c-2.025-3.507-6.508-4.708-10.015-2.683
	c-3.507,2.025-4.708,6.508-2.683,10.015C178.292,281.225,182.776,282.426,186.282,280.402z M246.313,247.421
	c1.594,0,3.201-0.506,4.563-1.552c4.824-3.705,17.892-10.031,23.11-11.523c3.982-1.139,6.287-5.291,5.148-9.273
	c-1.14-3.982-5.287-6.284-9.273-5.148c-6.839,1.956-21.705,9.12-28.122,14.048c-3.285,2.523-3.903,7.231-1.38,10.517
	C241.836,246.411,244.062,247.421,246.313,247.421z M129.338,320.136c-5.733,5.707-14.801,19.494-17.646,26.016
	c-1.656,3.796,0.079,8.217,3.876,9.873c0.976,0.426,1.994,0.627,2.995,0.627c2.892,0,5.648-1.683,6.879-4.503
	c2.17-4.976,10.169-17.092,14.479-21.382c2.935-2.922,2.947-7.671,0.024-10.607C137.022,317.225,132.274,317.213,129.338,320.136z
	 M490.886,282.528c-3.012-2.843-7.759-2.707-10.602,0.306c-2.843,3.012-2.706,7.759,0.306,10.602
	c12.337,11.644,17.764,25.56,16.132,41.358c-1.414,13.681-8.43,28.195-19.249,39.818c-8.555,9.191-19.838,15.468-32.629,18.15
	c-62.586,13.126-165.062,2.729-210.831-5.478c29.931-32.919,106.8-99.6,139.171-122.108c1.992-1.385,3.655-3.136,4.938-5.122
	c30.48,2.424,55.728,7.857,75.077,16.181c0.966,0.416,1.972,0.612,2.96,0.612c2.906,0,5.672-1.699,6.894-4.538
	c1.637-3.805-0.121-8.216-3.926-9.854c-20.618-8.87-47.086-14.671-78.735-17.272c-1.114-4.008-3.563-7.586-7.024-10.071
	c-6.188-4.441-13.295-7.539-21.73-9.473c-7.391-1.693-15.392-1.578-23.142,0.335c-3.584,0.885-7.249,2.003-10.989,3.349
	c-1.944-7.931-5.13-15.766-9.533-23.392c-6.803-11.784-15.763-21.903-26.473-30.114c1.449-26.888-8.877-52.702-28.732-71.4
	c-6.827-6.43-16.805-8.189-25.422-4.482c-24.023,10.337-42.202,30.002-50.495,54.39c-17.851,3.406-35.504,9.974-52.08,19.544
	c-16.766,9.68-31.198,21.762-42.913,35.341c-25.283-5.031-51.424,0.878-72.402,16.525c-7.518,5.607-10.983,15.128-8.829,24.257
	c6.268,26.554,23.473,48.41,47.498,60.597c1.127,8.595,3.301,17.051,6.599,25.222c1.179,2.921,3.989,4.695,6.957,4.695
	c0.935,0,1.885-0.176,2.805-0.547c3.841-1.55,5.698-5.921,4.147-9.762c-3.194-7.912-5.163-16.143-5.997-24.52
	c0.002-0.489-0.044-0.974-0.136-1.449c-1.46-17.426,1.984-35.438,9.648-52.501c0.326-0.525,0.589-1.098,0.781-1.71
	c4.446-9.512,10.208-18.71,17.163-27.325c0.251-0.264,0.481-0.549,0.694-0.85c11.048-13.47,25.028-25.481,41.486-34.983
	c16.214-9.361,33.52-15.564,50.923-18.428c0.442-0.033,0.876-0.103,1.3-0.212c14.097-2.185,28.242-2.175,41.903,0.141
	c16.075,2.725,30.454,8.481,42.479,16.829c0.292,0.247,0.609,0.466,0.938,0.666c10.312,7.35,18.848,16.633,25.167,27.577
	c4.138,7.166,6.962,14.497,8.476,21.857c-7.474,3.629-15.219,8.087-23.222,13.365c-7.203-0.749-23.361,0.213-31.075,2.298
	c-3.999,1.081-6.364,5.199-5.283,9.198c0.904,3.343,3.931,5.544,7.236,5.544c0.647,0,1.307-0.085,1.962-0.262
	c1.418-0.384,3.346-0.724,5.521-1.013c-10.287,8.171-20.941,17.544-31.941,28.113c-33.431,32.12-60.348,66.009-70.369,79.088v0.001
	c-0.727,0.949-1.351,1.956-1.874,3.003c-29.192,4.55-52.327-1.527-68.8-18.107c-2.919-2.939-7.668-2.954-10.606-0.034
	c-2.938,2.919-2.954,7.668-0.034,10.606c15.749,15.852,36.835,23.954,61.838,23.954c5.483,0,11.159-0.399,17.003-1.182
	c2.154,5.343,6.663,9.372,12.247,10.875c7.302,1.966,15.307,2.946,23.51,2.946c9.127,0,18.5-1.213,27.423-3.631
	c0.572-0.155,1.135-0.336,1.693-0.529c19.108,4.305,57.647,9.952,100.742,12.74c14.939,0.967,32.406,1.721,50.541,1.721
	c26.52,0,54.46-1.615,77.95-6.542c15.839-3.322,29.854-11.141,40.53-22.611c13.187-14.169,21.422-31.392,23.188-48.497
	C513.748,315.94,506.572,297.334,490.886,282.528z M47.278,292.802c-16.226-10.679-24.588-25.165-28.82-35.991
	c9.953-2.913,22.731-4.991,36.814-3.275C50.446,266.388,47.71,279.642,47.278,292.802z M61.56,239.286
	c-17.686-2.991-33.747-0.7-46.158,2.792c0.522-1.689,1.549-3.215,3.028-4.317c7.717-5.756,27.016-17.532,52.964-14.973
	C67.722,228.137,64.433,233.65,61.56,239.286z M213.057,151.817c-6.364-0.344-12.78-0.26-19.206,0.236
	c10.764-23.718,30.592-34.534,39.429-38.337c1.694-0.728,3.53-0.854,5.254-0.462C229.309,122.251,219.311,135.016,213.057,151.817z
	 M228.909,153.574c-0.13-0.022-0.26-0.04-0.39-0.061c5.556-13.056,13.744-23.084,21.244-30.247
	c7.256,9.074,15.616,23.55,16.758,42.925C255.24,160.175,242.603,155.895,228.909,153.574z M214.898,384.888
	c-0.086,0.04-0.171,0.083-0.256,0.126c-0.509,0.228-1.033,0.416-1.57,0.561c-14.456,3.917-30.167,4.164-43.109,0.678
	c-1.499-0.403-2.09-1.544-2.308-2.189c-0.185-0.545-0.502-1.958,0.542-3.321c9.813-12.808,36.164-45.987,68.854-77.395
	c28.775-27.646,54.701-46.615,77.351-56.636c0.251-0.093,0.494-0.199,0.73-0.317c5.876-2.558,11.534-4.519,16.958-5.858
	c5.481-1.352,11.081-1.45,16.196-0.276c6.455,1.48,11.799,3.782,16.336,7.038c1.272,0.913,1.453,2.162,1.448,2.825
	c-0.001,0.118-0.012,0.26-0.031,0.41c-0.027,0.117-0.044,0.238-0.065,0.357c-0.145,0.626-0.501,1.377-1.353,1.969
	c-34.503,23.99-118.757,97.383-145.875,129.043C217.644,383.193,216.334,384.199,214.898,384.888z M91.939,333.149
	c1.471,1.522,3.431,2.287,5.393,2.287c1.877,0,3.756-0.7,5.212-2.108c3.902-3.773,15.915-11.927,21.534-14.251
	c3.828-1.583,5.647-5.97,4.064-9.797c-1.584-3.828-5.969-5.647-9.797-4.064c-7.475,3.092-21.112,12.384-26.227,17.33
	C89.14,325.423,89.06,330.171,91.939,333.149z"/>
<g>
</g>
<g>
</g>
<g>
</g>
<g>
</g>
<g>
</g>
<g>
</g>
<g>
</g>
<g>
</g>
<g>
</g>
<g>
</g>
<g>
</g>
<g>
</g>
<g>
</g>
<g>
</g>
<g>
</g>
</svg>
